<svg width="900" height="900" viewBox="0 0 900 900" fill="none" xmlns="http://www.w3.org/2000/svg">
<rect width="900" height="900" fill="white"/>
<path d="M523.74 435.062V478.564C523.74 479.348 523.099 479.989 522.315 479.989H462.175C461.391 479.989 460.785 480.631 460.785 481.414V537.992C460.785 538.776 460.144 539.417 459.36 539.417H398.043C397.26 539.417 396.618 540.059 396.618 540.842V600.983C396.618 601.767 395.977 602.408 395.193 602.408H343.247V626.279C343.247 628.488 345.028 630.27 347.237 630.27H555.913L556.127 629.985V433.708H525.13C524.346 433.708 523.705 434.349 523.705 435.133L523.74 435.062Z" fill="#941935"/>
<path d="M555.948 630.201H347.237C345.028 630.201 343.247 628.42 343.247 626.211V331.6C343.247 313.323 346.667 295.865 352.581 279.618C294.507 300.853 253 356.397 253 421.847V716.458C253 718.667 254.781 720.448 256.99 720.448H552.171C554.38 720.448 556.162 718.667 556.162 716.458V630.201H555.948Z" fill="#EF482D"/>
<path d="M494.847 180C429.433 180 373.853 221.543 352.619 279.581C368.865 273.631 386.323 270.247 404.6 270.247C488.327 270.247 556.163 338.119 556.163 421.845V630.2H642.42C644.629 630.2 646.41 628.419 646.41 626.21V331.599C646.41 247.872 578.538 180 494.847 180Z" fill="#EF482D"/>
</svg>
